<svg xmlns="http://www.w3.org/2000/svg" viewBox="0 0 449.47 115.04"><defs><style>.cls-1{fill:#fff;}.cls-2{fill:none;stroke:#fff;stroke-miterlimit:10;}</style></defs><g id="Calque_2" data-name="Calque 2"><g id="Calque_1-2" data-name="Calque 1"><path class="cls-1" d="M0,0V12.88H45.07V24.2a29,29,0,1,0,0,48.19v4.88H58V0ZM29,64.39a16.1,16.1,0,1,1,16.1-16.1A16.09,16.09,0,0,1,29,64.39Z"/><path class="cls-1" d="M196.47,0V12.88h45.08V24.2a29,29,0,1,0,0,48.19v4.88h12.87V0Zm29,64.39a16.1,16.1,0,1,1,16.1-16.1A16.1,16.1,0,0,1,225.45,64.39Z"/><path class="cls-1" d="M123.44,0V77.27H110.56V29a16.1,16.1,0,0,0-32.19,0v48.3H65.49V29A29,29,0,0,1,110.56,4.88V0Z"/><path class="cls-1" d="M143.86,48.29a16.1,16.1,0,0,0,29,9.66h14.44A29,29,0,0,1,131,48.29V0h12.88V6.44h45.07V19.32H143.86Z"/><path class="cls-1" d="M319.83,25.76h-13A16.1,16.1,0,0,0,274.93,29v48.3H262.05V0h12.88V4.88a29,29,0,0,1,44.9,20.88Z"/><path class="cls-1" d="M381.83,38.63V29a28.38,28.38,0,0,0-.18-3.21,29,29,0,0,0-57.59,0,28.38,28.38,0,0,0-.18,3.21V48.29a28.56,28.56,0,0,0,.18,3.22,29,29,0,0,0,57.59,0h-13a15.15,15.15,0,0,1-.6,2.15,16.1,16.1,0,0,1-30.35,0,15.15,15.15,0,0,1-.6-2.15,15.56,15.56,0,0,1-.32-3.22V38.63Zm-44.15-15a16.1,16.1,0,0,1,30.35,0,15.67,15.67,0,0,1,.6,2.16H337.08A15.67,15.67,0,0,1,337.68,23.6Z"/><path class="cls-1" d="M449.47,48.29a29,29,0,0,1-57.77,3.22h13a15.15,15.15,0,0,0,.6,2.15,16.1,16.1,0,0,0,31.27-5.37,16.28,16.28,0,0,0-.32-3.22H396.4a28.56,28.56,0,0,1-3.23-6.44,28,28,0,0,1-1.47-6.44,26.28,26.28,0,0,1-.18-3.22,29,29,0,0,1,57.77-3.21h-13a15.67,15.67,0,0,0-.6-2.16,16.1,16.1,0,0,0-30.35,0,15.85,15.85,0,0,0-.93,5.36,15.42,15.42,0,0,0,.33,3.22h39.87a29,29,0,0,1,4.88,16.1Z"/><path class="cls-1" d="M6.49,95.34a5.93,5.93,0,0,1,2.25.42A5.14,5.14,0,0,1,10.53,97a5.73,5.73,0,0,1,1.18,2,7.67,7.67,0,0,1,.43,2.69.74.74,0,0,1-.09.43.36.36,0,0,1-.3.11H1.37v.28a9.79,9.79,0,0,0,.38,2.85,5.91,5.91,0,0,0,1.07,2.06,4.46,4.46,0,0,0,1.67,1.25,5.57,5.57,0,0,0,2.2.42,6.56,6.56,0,0,0,1.88-.24,6.89,6.89,0,0,0,1.34-.54,7.54,7.54,0,0,0,.86-.53.94.94,0,0,1,.46-.24.34.34,0,0,1,.29.14l.37.47a4.06,4.06,0,0,1-.91.81,6.86,6.86,0,0,1-1.27.64A9.51,9.51,0,0,1,8.2,110a8.69,8.69,0,0,1-1.61.15,6.9,6.9,0,0,1-2.69-.51,5.73,5.73,0,0,1-2.08-1.49,7,7,0,0,1-1.35-2.41A10.51,10.51,0,0,1,0,102.47a9.07,9.07,0,0,1,.44-2.86,6.52,6.52,0,0,1,1.27-2.25,6,6,0,0,1,2-1.48A6.63,6.63,0,0,1,6.49,95.34Zm0,1a5.43,5.43,0,0,0-2,.35,4.26,4.26,0,0,0-1.52,1,5.06,5.06,0,0,0-1,1.57,7,7,0,0,0-.53,2H10.9a6.34,6.34,0,0,0-.32-2.07,4.44,4.44,0,0,0-.89-1.55,3.91,3.91,0,0,0-1.39-1A4.53,4.53,0,0,0,6.51,96.37Z"/><path class="cls-1" d="M14.94,100.79h6.72V102H14.94Z"/><path class="cls-1" d="M33.37,97.37a.34.34,0,0,1-.32.2.81.81,0,0,1-.41-.18A7.31,7.31,0,0,0,32,97a6.39,6.39,0,0,0-1-.4,5.1,5.1,0,0,0-1.46-.18,4.33,4.33,0,0,0-1.43.22,3.57,3.57,0,0,0-1.09.6,2.67,2.67,0,0,0-.71.87,2.27,2.27,0,0,0-.26,1,1.78,1.78,0,0,0,.35,1.12,3.15,3.15,0,0,0,.91.77,6.84,6.84,0,0,0,1.28.54L30,102q.75.22,1.47.51a5.54,5.54,0,0,1,1.27.7,3.21,3.21,0,0,1,.91,1,2.81,2.81,0,0,1,.35,1.47,4.4,4.4,0,0,1-.34,1.75,3.82,3.82,0,0,1-1,1.4,4.67,4.67,0,0,1-1.58.94,6.2,6.2,0,0,1-2.14.35,6.35,6.35,0,0,1-2.62-.49,7.15,7.15,0,0,1-2-1.26l.33-.49a.57.57,0,0,1,.16-.18.54.54,0,0,1,.24,0,.78.78,0,0,1,.47.23,6.43,6.43,0,0,0,.71.5,6.07,6.07,0,0,0,1.1.49,4.79,4.79,0,0,0,1.63.24,4.63,4.63,0,0,0,1.6-.26,3.39,3.39,0,0,0,1.16-.68,3,3,0,0,0,.7-1,3.26,3.26,0,0,0,.24-1.24,2,2,0,0,0-.35-1.2,3,3,0,0,0-.91-.81,6.26,6.26,0,0,0-1.28-.56c-.48-.16-1-.31-1.48-.46s-1-.33-1.47-.51a5.23,5.23,0,0,1-1.28-.69,3.41,3.41,0,0,1-.91-1,3,3,0,0,1-.35-1.5,3.3,3.3,0,0,1,.34-1.47A3.78,3.78,0,0,1,26,96.51a4.74,4.74,0,0,1,1.5-.85,5.87,5.87,0,0,1,2-.32,6.47,6.47,0,0,1,2.33.39,5.57,5.57,0,0,1,1.87,1.16Z"/><path class="cls-1" d="M37.88,115V95.58h.75a.57.57,0,0,1,.31.07.4.4,0,0,1,.13.29l.13,2.22a7.63,7.63,0,0,1,2.23-2.06,5.48,5.48,0,0,1,2.87-.77,5,5,0,0,1,4.13,1.84,8.66,8.66,0,0,1,1.48,5.5,10,10,0,0,1-.42,2.94,7,7,0,0,1-1.2,2.37,5.83,5.83,0,0,1-2,1.59,6,6,0,0,1-2.68.57,5.61,5.61,0,0,1-2.55-.53A5.27,5.27,0,0,1,39.25,108v7Zm6-18.6a4.7,4.7,0,0,0-2.6.75,7.12,7.12,0,0,0-2.06,2.07v7.55a4.91,4.91,0,0,0,1.83,1.74,5,5,0,0,0,2.29.51,5,5,0,0,0,2.23-.46,4.51,4.51,0,0,0,1.6-1.31,5.91,5.91,0,0,0,1-2,9.64,9.64,0,0,0,.33-2.6A7.64,7.64,0,0,0,47.31,98,4.07,4.07,0,0,0,43.91,96.44Z"/><path class="cls-1" d="M58.82,95.34a7,7,0,0,1,2.77.53,5.63,5.63,0,0,1,2.06,1.5,6.64,6.64,0,0,1,1.28,2.33,10.83,10.83,0,0,1,0,6.11,6.83,6.83,0,0,1-1.28,2.33,5.58,5.58,0,0,1-2.06,1.48,7.64,7.64,0,0,1-5.54,0A5.58,5.58,0,0,1,54,108.14a6.68,6.68,0,0,1-1.29-2.33,10.83,10.83,0,0,1,0-6.11A6.51,6.51,0,0,1,54,97.37a5.63,5.63,0,0,1,2.06-1.5A7,7,0,0,1,58.82,95.34Zm0,13.72a5.41,5.41,0,0,0,2.25-.44,4.15,4.15,0,0,0,1.6-1.27,5.64,5.64,0,0,0,1-2,11.1,11.1,0,0,0,0-5.21,5.74,5.74,0,0,0-1-2,4.08,4.08,0,0,0-1.6-1.28,5.85,5.85,0,0,0-4.5,0A4.16,4.16,0,0,0,55,98.16a5.74,5.74,0,0,0-1,2,10.76,10.76,0,0,0,0,5.21,5.64,5.64,0,0,0,1,2,4.22,4.22,0,0,0,1.6,1.27A5.44,5.44,0,0,0,58.82,109.06Z"/><path class="cls-1" d="M69,110V95.58h.73a.39.39,0,0,1,.47.44l.12,3a6.8,6.8,0,0,1,1.85-2.74,4.22,4.22,0,0,1,2.84-1,4.94,4.94,0,0,1,1.2.14,4.72,4.72,0,0,1,1,.39l-.19,1a.27.27,0,0,1-.29.23.79.79,0,0,1-.25-.06l-.39-.13a4.87,4.87,0,0,0-.59-.13,4.74,4.74,0,0,0-.8-.06,3.7,3.7,0,0,0-2.68,1,7.11,7.11,0,0,0-1.69,2.91V110Z"/><path class="cls-1" d="M84.37,110.19a3,3,0,0,1-2.26-.81,3.4,3.4,0,0,1-.81-2.5V97.05H79.23A.37.37,0,0,1,79,97a.28.28,0,0,1-.1-.24v-.54L81.32,96l.35-5.15a.38.38,0,0,1,.11-.23.34.34,0,0,1,.25-.1h.64V96h4.52v1H82.67v9.76a3,3,0,0,0,.15,1,1.91,1.91,0,0,0,.42.71,1.74,1.74,0,0,0,.63.4,2.2,2.2,0,0,0,.78.13,2.46,2.46,0,0,0,.9-.15,3.94,3.94,0,0,0,.65-.33,3.79,3.79,0,0,0,.44-.34.51.51,0,0,1,.28-.15c.08,0,.15,0,.23.15l.38.6a4.1,4.1,0,0,1-1.4,1A4.44,4.44,0,0,1,84.37,110.19Z"/><line class="cls-2" x1="449.47" y1="102.79" x2="101.1" y2="102.79"/></g></g></svg>